<?xml version="1.0" encoding="UTF-8"?>
<svg xmlns="http://www.w3.org/2000/svg" xmlns:xlink="http://www.w3.org/1999/xlink" width="128px" height="128px" viewBox="0 0 128 128" version="1.1">
<g id="surface1">
<path style=" stroke:none;fill-rule:nonzero;fill:rgb(0%,0%,0%);fill-opacity:1;" d="M 0.164062 7.164062 C 0.164062 11.304688 0.203125 13.054688 0.285156 10.90625 C 0.367188 8.835938 0.367188 5.492188 0.285156 3.34375 C 0.203125 1.273438 0.164062 3.023438 0.164062 7.164062 Z M 0.164062 7.164062 "/>
<path style=" stroke:none;fill-rule:nonzero;fill:rgb(0%,0%,0%);fill-opacity:1;" d="M 2.816406 5.890625 C 3.183594 6.765625 3.183594 7.085938 2.777344 7.402344 C 2.488281 7.640625 2.855469 7.878906 3.59375 7.878906 C 4.652344 7.960938 4.898438 7.640625 4.898438 6.367188 C 4.898438 5.09375 4.613281 4.777344 3.632812 4.777344 C 2.570312 4.777344 2.449219 5.015625 2.816406 5.890625 Z M 2.816406 5.890625 "/>
<path style=" stroke:none;fill-rule:nonzero;fill:rgb(0%,0%,0%);fill-opacity:1;" d="M 22.488281 6.847656 C 22.488281 7.722656 22.613281 7.960938 22.734375 7.324219 C 22.855469 6.765625 22.816406 6.050781 22.695312 5.8125 C 22.570312 5.492188 22.449219 5.96875 22.488281 6.847656 Z M 22.488281 6.847656 "/>
<path style=" stroke:none;fill-rule:nonzero;fill:rgb(0%,0%,0%);fill-opacity:1;" d="M 1.632812 13.691406 C 1.632812 14.804688 1.511719 15.125 1.304688 14.648438 C 1.101562 13.929688 0.898438 13.929688 0.570312 14.648438 C 0.0820312 15.679688 0.0390625 25.472656 0.570312 25.472656 C 0.734375 25.472656 0.777344 26.429688 0.570312 27.621094 C 0.40625 28.894531 0.246094 50.546875 0.246094 75.78125 L 0.203125 121.792969 L 124.898438 121.792969 L 124.898438 11.941406 L 55.550781 11.941406 L 55.386719 13.691406 L 55.222656 15.523438 L 55.144531 13.691406 C 55.101562 12.417969 54.855469 11.941406 54.203125 12.019531 C 53.671875 12.019531 53.511719 12.257812 53.796875 12.496094 C 54.039062 12.65625 54.285156 13.453125 54.285156 14.167969 C 54.285156 15.285156 54.203125 15.285156 53.917969 14.40625 C 53.632812 13.53125 53.550781 13.53125 53.347656 14.40625 C 53.222656 15.042969 53.101562 14.648438 53.0625 13.53125 L 52.980469 11.542969 L 52.652344 13.53125 C 52.488281 14.648438 52.328125 15.042969 52.285156 14.488281 C 52.246094 13.851562 52.039062 13.691406 51.753906 14.011719 C 51.386719 14.40625 51.386719 14.167969 51.796875 13.292969 C 52.285156 12.097656 52.246094 11.941406 51.671875 11.941406 C 51.304688 11.941406 51.019531 12.578125 51.019531 13.53125 C 51.019531 14.40625 50.855469 15.125 50.613281 15.125 C 50.40625 15.125 50.328125 14.648438 50.449219 14.011719 C 50.570312 13.375 50.488281 12.65625 50.246094 12.339844 C 50 12.097656 49.796875 12.496094 49.796875 13.375 C 49.796875 14.167969 49.511719 14.886719 49.183594 14.886719 C 48.855469 14.886719 48.570312 14.167969 48.570312 13.375 C 48.570312 12.257812 48.246094 11.941406 46.9375 11.941406 C 45.46875 11.941406 45.144531 12.417969 45.222656 14.40625 C 45.265625 14.648438 44.980469 14.886719 44.652344 14.886719 C 44.328125 14.886719 44.082031 14.328125 44.082031 13.769531 C 44.082031 13.132812 44.285156 12.894531 44.488281 13.132812 C 44.734375 13.375 44.898438 13.214844 44.898438 12.816406 C 44.898438 12.339844 44.367188 11.941406 43.671875 11.941406 C 42.777344 11.941406 42.449219 12.339844 42.449219 13.375 C 42.449219 14.167969 42.164062 14.886719 41.835938 14.886719 C 41.511719 14.886719 41.222656 14.328125 41.222656 13.769531 C 41.222656 13.132812 41.429688 12.894531 41.632812 13.132812 C 41.878906 13.375 42.039062 13.214844 42.039062 12.816406 C 42.039062 12.257812 39.753906 11.941406 35.304688 11.941406 C 29.144531 11.941406 28.570312 12.097656 28.613281 13.292969 C 28.613281 14.089844 28.734375 14.328125 28.816406 13.851562 C 28.9375 13.292969 29.386719 13.054688 29.796875 13.292969 C 31.019531 13.929688 30.777344 14.726562 29.386719 14.804688 C 28.449219 14.886719 28.164062 14.566406 28.164062 13.453125 C 28.164062 11.304688 27.429688 11.542969 27.222656 13.691406 L 27.0625 15.523438 L 26.980469 13.691406 C 26.9375 12.019531 26.777344 11.941406 23.714844 11.941406 C 20.652344 11.941406 20.449219 12.019531 20.285156 13.691406 L 20.121094 15.523438 L 20.039062 13.691406 C 20 12.179688 19.796875 11.941406 18.203125 11.941406 C 16.777344 11.941406 16.367188 12.257812 16.203125 13.53125 C 15.960938 15.441406 15.101562 15.679688 15.101562 13.851562 C 15.101562 13.214844 15.304688 12.894531 15.511719 13.132812 C 15.753906 13.375 15.917969 13.292969 15.917969 12.816406 C 15.917969 12.257812 13.632812 12.019531 9.304688 12.179688 C 2.898438 12.339844 2.652344 12.417969 2.777344 13.929688 C 2.855469 15.203125 2.816406 15.285156 2.488281 14.328125 C 2.285156 13.691406 2.203125 12.894531 2.285156 12.578125 C 2.40625 12.257812 2.285156 11.941406 2.082031 11.941406 C 1.835938 11.941406 1.632812 12.734375 1.632812 13.691406 Z M 3.796875 13.929688 C 3.671875 14.648438 3.46875 15.042969 3.386719 14.804688 C 3.265625 14.566406 3.304688 14.089844 3.46875 13.613281 C 3.835938 12.339844 4.082031 12.578125 3.796875 13.929688 Z M 7.347656 14.566406 C 7.347656 15.125 7.183594 15.042969 6.9375 14.328125 C 6.652344 13.453125 6.53125 13.453125 6.53125 14.167969 C 6.53125 14.726562 6.328125 14.964844 6.082031 14.648438 C 5.753906 14.328125 5.796875 13.929688 6.164062 13.453125 C 6.777344 12.734375 7.347656 13.214844 7.347656 14.566406 Z M 8.449219 13.929688 C 8.449219 14.566406 8.285156 14.886719 8.082031 14.648438 C 7.878906 14.40625 7.835938 13.851562 7.960938 13.453125 C 8.328125 12.417969 8.449219 12.578125 8.449219 13.929688 Z M 10.203125 14.566406 C 10.203125 15.125 10.039062 15.042969 9.796875 14.328125 C 9.46875 13.375 9.386719 13.375 9.386719 14.25 C 9.386719 14.886719 9.265625 15.203125 9.144531 14.886719 C 8.777344 14.167969 9.386719 12.65625 9.835938 13.132812 C 10.039062 13.453125 10.203125 14.089844 10.203125 14.566406 Z M 11.222656 13.453125 C 11.347656 13.851562 11.265625 14.40625 11.019531 14.726562 C 10.816406 14.964844 10.613281 14.648438 10.613281 14.011719 C 10.613281 12.578125 10.855469 12.339844 11.222656 13.453125 Z M 12.816406 13.929688 C 12.9375 14.566406 12.855469 15.125 12.652344 15.125 C 12.40625 15.125 12.246094 14.566406 12.246094 13.929688 C 12.246094 13.292969 12.328125 12.734375 12.40625 12.734375 C 12.488281 12.734375 12.652344 13.292969 12.816406 13.929688 Z M 17.550781 14.40625 C 17.550781 14.804688 17.386719 15.125 17.222656 15.125 C 17.019531 15.125 16.855469 14.566406 16.855469 13.929688 C 16.855469 13.292969 17.019531 12.976562 17.222656 13.214844 C 17.386719 13.453125 17.550781 13.929688 17.550781 14.40625 Z M 22.039062 14.566406 C 22.039062 15.125 21.878906 15.042969 21.632812 14.328125 C 21.304688 13.375 21.222656 13.375 21.222656 14.25 C 21.222656 14.886719 21.101562 15.203125 20.980469 14.886719 C 20.613281 14.167969 21.222656 12.65625 21.671875 13.132812 C 21.878906 13.453125 22.039062 14.089844 22.039062 14.566406 Z M 23.917969 13.929688 C 22.980469 15.363281 22.449219 15.441406 22.449219 14.25 C 22.449219 13.851562 22.613281 13.613281 22.777344 13.851562 C 22.9375 14.011719 23.347656 13.929688 23.671875 13.453125 C 24.613281 12.339844 24.777344 12.65625 23.917969 13.929688 Z M 36.203125 13.929688 C 36.203125 14.566406 36.039062 15.125 35.835938 15.125 C 35.429688 15.125 35.386719 14.011719 35.796875 13.292969 C 36.164062 12.496094 36.203125 12.578125 36.203125 13.929688 Z M 37.960938 14.566406 C 37.960938 15.125 37.796875 15.042969 37.550781 14.328125 C 37.222656 13.375 37.144531 13.375 37.144531 14.25 C 37.144531 14.886719 37.019531 15.203125 36.898438 14.886719 C 36.53125 14.167969 37.144531 12.65625 37.59375 13.132812 C 37.796875 13.453125 37.960938 14.089844 37.960938 14.566406 Z M 40.285156 14.488281 C 40.164062 15.125 40.039062 14.886719 40.039062 14.011719 C 40 13.132812 40.121094 12.65625 40.246094 12.976562 C 40.367188 13.214844 40.40625 13.929688 40.285156 14.488281 Z M 47.632812 14.488281 C 47.511719 15.125 47.386719 14.886719 47.386719 14.011719 C 47.347656 13.132812 47.46875 12.65625 47.59375 12.976562 C 47.714844 13.214844 47.753906 13.929688 47.632812 14.488281 Z M 19.59375 13.851562 C 19.59375 14.089844 19.429688 14.488281 19.183594 14.726562 C 18.980469 14.964844 18.777344 14.804688 18.777344 14.40625 C 18.777344 13.929688 18.980469 13.53125 19.183594 13.53125 C 19.429688 13.53125 19.59375 13.691406 19.59375 13.851562 Z M 32.246094 13.851562 C 32.246094 14.011719 31.960938 14.328125 31.632812 14.648438 C 31.304688 14.886719 31.019531 14.726562 31.019531 14.328125 C 31.019531 13.851562 31.304688 13.53125 31.632812 13.53125 C 31.960938 13.53125 32.246094 13.691406 32.246094 13.851562 Z M 1.101562 17.910156 C 1.101562 18.546875 0.9375 18.867188 0.734375 18.625 C 0.53125 18.386719 0.488281 17.832031 0.613281 17.433594 C 0.980469 16.398438 1.101562 16.558594 1.101562 17.910156 Z M 4.285156 17.433594 C 4.40625 17.832031 4.367188 18.386719 4.164062 18.625 C 3.960938 18.867188 3.796875 18.546875 3.796875 17.910156 C 3.796875 16.558594 3.917969 16.398438 4.285156 17.433594 Z M 7.222656 18.148438 C 7.222656 18.945312 6.980469 19.660156 6.695312 19.660156 C 6.328125 19.660156 6.328125 19.265625 6.652344 18.148438 C 6.9375 17.351562 7.183594 16.714844 7.222656 16.714844 C 7.265625 16.714844 7.265625 17.351562 7.222656 18.148438 Z M 8.980469 17.910156 C 8.980469 18.386719 8.695312 18.867188 8.367188 18.867188 C 8.039062 18.867188 7.753906 18.386719 7.753906 17.910156 C 7.753906 17.433594 8.039062 16.957031 8.367188 16.957031 C 8.695312 16.957031 8.980469 17.433594 8.980469 17.910156 Z M 9.917969 18.308594 C 10.039062 19.183594 9.960938 19.902344 9.753906 19.902344 C 9.550781 19.902344 9.386719 19.183594 9.386719 18.308594 C 9.386719 17.433594 9.46875 16.714844 9.550781 16.714844 C 9.632812 16.714844 9.796875 17.433594 9.917969 18.308594 Z M 11.386719 17.832031 C 11.753906 18.707031 11.753906 19.105469 11.386719 19.582031 C 11.0625 19.902344 11.019531 19.820312 11.183594 19.265625 C 11.347656 18.707031 11.265625 18.308594 11.0625 18.308594 C 10.816406 18.308594 10.613281 17.910156 10.613281 17.511719 C 10.613281 16.398438 10.816406 16.476562 11.386719 17.832031 Z M 14.695312 17.988281 C 14.695312 18.625 14.53125 19.023438 14.328125 18.785156 C 14.121094 18.46875 13.835938 18.785156 13.753906 19.265625 C 13.632812 19.820312 13.511719 19.503906 13.511719 18.46875 C 13.46875 17.433594 13.714844 16.714844 14.082031 16.714844 C 14.40625 16.714844 14.695312 17.273438 14.695312 17.988281 Z M 15.796875 19.265625 C 15.671875 19.820312 15.59375 19.421875 15.59375 18.308594 C 15.59375 17.195312 15.671875 16.796875 15.796875 17.273438 C 15.878906 17.832031 15.878906 18.785156 15.796875 19.265625 Z M 24.488281 17.511719 C 24.488281 17.910156 24.285156 18.308594 24.039062 18.308594 C 23.835938 18.308594 23.753906 17.910156 23.878906 17.511719 C 24 17.035156 24.203125 16.714844 24.328125 16.714844 C 24.40625 16.714844 24.488281 17.035156 24.488281 17.511719 Z M 25.835938 18.308594 C 25.960938 19.183594 25.878906 19.742188 25.671875 19.421875 C 25.46875 19.183594 25.304688 18.46875 25.304688 17.832031 C 25.304688 16.238281 25.59375 16.476562 25.835938 18.308594 Z M 29.46875 18.230469 C 30.328125 17.351562 30.855469 17.671875 30.449219 18.945312 C 30.121094 20.058594 28.367188 19.503906 28.328125 18.230469 C 28.285156 17.511719 28.367188 17.511719 28.449219 18.070312 C 28.570312 18.867188 28.855469 18.867188 29.46875 18.230469 Z M 48.121094 18.46875 C 48.121094 20.21875 48.082031 20.21875 47.753906 18.707031 C 47.550781 17.75 47.386719 17.59375 47.386719 18.230469 C 47.347656 18.867188 47.222656 19.183594 47.101562 18.867188 C 46.777344 18.308594 47.265625 16.714844 47.796875 16.714844 C 48 16.714844 48.164062 17.511719 48.121094 18.46875 Z M 49.511719 18.308594 C 49.632812 19.183594 49.550781 19.902344 49.347656 19.902344 C 49.144531 19.902344 48.980469 19.183594 48.980469 18.308594 C 48.980469 17.433594 49.0625 16.714844 49.144531 16.714844 C 49.222656 16.714844 49.386719 17.433594 49.511719 18.308594 Z M 51.019531 18.308594 C 51.019531 19.183594 50.855469 19.902344 50.652344 19.902344 C 50.449219 19.902344 50.367188 19.183594 50.488281 18.308594 C 50.613281 17.433594 50.777344 16.714844 50.855469 16.714844 C 50.9375 16.714844 51.019531 17.433594 51.019531 18.308594 Z M 58.980469 17.832031 C 59.222656 17.59375 59.46875 17.988281 59.46875 18.625 C 59.46875 19.503906 59.265625 19.660156 58.734375 19.105469 C 58.246094 18.546875 57.960938 18.625 57.835938 19.34375 C 57.714844 19.820312 57.59375 19.421875 57.59375 18.308594 C 57.550781 16.875 57.671875 16.636719 58 17.273438 C 58.246094 17.75 58.695312 17.988281 58.980469 17.832031 Z M 74.652344 18.46875 C 74.652344 19.503906 74.53125 19.820312 74.40625 19.265625 C 74.328125 18.785156 74.039062 18.46875 73.835938 18.785156 C 73.632812 19.023438 73.46875 18.867188 73.46875 18.386719 C 73.46875 17.75 73.835938 17.273438 74.613281 16.796875 C 74.652344 16.714844 74.695312 17.511719 74.652344 18.46875 Z M 2.53125 18.070312 C 2.285156 18.230469 2.164062 18.867188 2.285156 19.265625 C 2.449219 19.820312 2.367188 19.902344 2.082031 19.582031 C 1.550781 18.867188 1.878906 17.511719 2.570312 17.59375 C 2.9375 17.59375 2.898438 17.75 2.53125 18.070312 Z M 16.898438 18.785156 C 17.019531 19.421875 16.980469 19.742188 16.734375 19.503906 C 16.488281 19.265625 16.328125 18.707031 16.328125 18.230469 C 16.328125 17.113281 16.613281 17.351562 16.898438 18.785156 Z M 20.40625 18.308594 C 20.40625 19.503906 19.835938 19.820312 19.304688 18.945312 C 18.855469 18.230469 18.613281 18.230469 18.328125 19.183594 C 18.039062 20.140625 17.960938 20.058594 17.960938 18.945312 C 17.960938 17.988281 18.285156 17.671875 19.183594 17.671875 C 19.878906 17.75 20.40625 17.988281 20.40625 18.308594 Z M 23.265625 18.230469 C 23.265625 18.707031 23.101562 19.183594 22.9375 19.421875 C 22.734375 19.660156 22.570312 19.34375 22.570312 18.707031 C 22.570312 18.070312 22.734375 17.511719 22.9375 17.511719 C 23.101562 17.511719 23.265625 17.832031 23.265625 18.230469 Z M 32 18.070312 C 31.796875 18.46875 31.511719 19.023438 31.347656 19.503906 C 31.183594 19.980469 31.019531 19.660156 31.019531 18.867188 C 31.019531 18.148438 31.304688 17.511719 31.714844 17.511719 C 32.082031 17.511719 32.203125 17.75 32 18.070312 Z M 32.9375 20.058594 C 32.816406 20.617188 32.734375 20.21875 32.734375 19.105469 C 32.734375 17.988281 32.816406 17.59375 32.9375 18.070312 C 33.019531 18.625 33.019531 19.582031 32.9375 20.058594 Z M 34.285156 18.46875 C 34.285156 19.183594 34.449219 19.105469 34.695312 18.308594 C 34.898438 17.671875 35.101562 17.511719 35.101562 17.988281 C 35.101562 19.265625 34.695312 19.820312 34.039062 19.34375 C 33.386719 18.867188 33.265625 17.511719 33.878906 17.511719 C 34.121094 17.511719 34.285156 17.988281 34.285156 18.46875 Z M 37.960938 18.308594 C 37.960938 19.503906 37.386719 19.820312 36.855469 18.945312 C 36.40625 18.230469 36.164062 18.230469 35.878906 19.183594 C 35.59375 20.140625 35.511719 20.058594 35.511719 18.945312 C 35.511719 17.988281 35.835938 17.671875 36.734375 17.671875 C 37.429688 17.75 37.960938 17.988281 37.960938 18.308594 Z M 39.0625 18.707031 C 39.0625 19.34375 38.898438 19.660156 38.695312 19.421875 C 38.53125 19.183594 38.367188 18.707031 38.367188 18.230469 C 38.367188 17.832031 38.53125 17.511719 38.695312 17.511719 C 38.898438 17.511719 39.0625 18.070312 39.0625 18.707031 Z M 40.816406 18.707031 C 40.816406 19.34375 40.652344 19.902344 40.40625 19.902344 C 40.203125 19.902344 40.121094 19.34375 40.246094 18.707031 C 40.40625 18.070312 40.570312 17.511719 40.652344 17.511719 C 40.734375 17.511719 40.816406 18.070312 40.816406 18.707031 Z M 42.121094 18.230469 C 42.449219 17.351562 42.488281 17.351562 42.367188 18.148438 C 42.203125 19.421875 41.46875 19.582031 41.386719 18.308594 C 41.304688 17.75 41.347656 17.832031 41.511719 18.386719 C 41.671875 19.023438 41.835938 18.945312 42.121094 18.230469 Z M 43.671875 18.308594 C 43.671875 18.707031 43.511719 19.105469 43.265625 19.105469 C 43.0625 19.105469 42.855469 18.707031 42.855469 18.308594 C 42.855469 17.832031 43.0625 17.511719 43.265625 17.511719 C 43.511719 17.511719 43.671875 17.832031 43.671875 18.308594 Z M 54.039062 18.070312 C 53.835938 18.46875 53.550781 19.023438 53.386719 19.503906 C 53.222656 19.980469 53.0625 19.660156 53.0625 18.867188 C 53.0625 18.148438 53.347656 17.511719 53.753906 17.511719 C 54.121094 17.511719 54.246094 17.75 54.039062 18.070312 Z M 55.511719 18.707031 C 55.511719 19.34375 55.347656 19.902344 55.183594 19.902344 C 54.980469 19.902344 54.816406 19.34375 54.816406 18.707031 C 54.816406 18.070312 54.980469 17.511719 55.183594 17.511719 C 55.347656 17.511719 55.511719 18.070312 55.511719 18.707031 Z M 57.144531 18.785156 C 57.144531 19.34375 56.9375 20.058594 56.652344 20.378906 C 56.367188 20.695312 56.328125 20.617188 56.488281 20.058594 C 56.652344 19.503906 56.570312 19.105469 56.367188 19.105469 C 56.121094 19.105469 55.917969 18.785156 55.917969 18.46875 C 55.917969 18.070312 56.203125 17.75 56.53125 17.75 C 56.855469 17.75 57.144531 18.230469 57.144531 18.785156 Z M 61.222656 18.707031 C 61.222656 19.34375 61.0625 19.902344 60.898438 19.902344 C 60.695312 19.902344 60.53125 19.34375 60.53125 18.707031 C 60.53125 18.070312 60.695312 17.511719 60.898438 17.511719 C 61.0625 17.511719 61.222656 18.070312 61.222656 18.707031 Z M 65.714844 18.308594 C 65.714844 19.503906 65.144531 19.820312 64.613281 18.945312 C 64.164062 18.230469 63.917969 18.230469 63.632812 19.183594 C 63.347656 20.140625 63.265625 20.058594 63.265625 18.945312 C 63.265625 17.988281 63.59375 17.671875 64.488281 17.671875 C 65.183594 17.75 65.714844 17.988281 65.714844 18.308594 Z M 68.328125 18.707031 C 68.164062 19.34375 67.917969 19.660156 67.714844 19.421875 C 67.265625 18.945312 67.632812 17.511719 68.164062 17.511719 C 68.367188 17.511719 68.449219 18.070312 68.328125 18.707031 Z M 70.203125 17.832031 C 70.203125 17.988281 69.960938 18.546875 69.671875 19.023438 C 69.265625 19.660156 69.101562 19.582031 69.101562 18.707031 C 69.101562 18.070312 69.347656 17.511719 69.671875 17.511719 C 69.960938 17.511719 70.203125 17.671875 70.203125 17.832031 Z M 71.429688 18.308594 C 71.429688 18.707031 71.265625 19.105469 71.019531 19.105469 C 70.816406 19.105469 70.613281 18.707031 70.613281 18.308594 C 70.613281 17.832031 70.816406 17.511719 71.019531 17.511719 C 71.265625 17.511719 71.429688 17.832031 71.429688 18.308594 Z M 72.980469 18.386719 C 72.898438 18.867188 72.652344 19.183594 72.449219 19.183594 C 72.246094 19.183594 72 18.867188 71.917969 18.386719 C 71.835938 17.910156 72.082031 17.511719 72.449219 17.511719 C 72.816406 17.511719 73.0625 17.910156 72.980469 18.386719 Z M 1.632812 25.472656 C 1.632812 25.871094 1.550781 26.269531 1.46875 26.269531 C 1.347656 26.269531 1.144531 25.871094 1.019531 25.472656 C 0.898438 24.996094 0.980469 24.675781 1.183594 24.675781 C 1.429688 24.675781 1.632812 24.996094 1.632812 25.472656 Z M 14.695312 26.109375 C 14.695312 26.90625 14.40625 27.621094 14.082031 27.621094 C 13.671875 27.621094 13.59375 27.304688 13.917969 26.585938 C 14.203125 25.949219 14.164062 25.472656 13.796875 25.234375 C 13.46875 24.914062 13.511719 24.757812 14 24.757812 C 14.40625 24.675781 14.695312 25.234375 14.695312 26.109375 Z M 4.121094 26.824219 C 4.652344 28.097656 4.613281 28.179688 4 27.144531 C 3.304688 26.109375 3.101562 25.472656 3.429688 25.472656 C 3.511719 25.472656 3.835938 26.109375 4.121094 26.824219 Z M 5.714844 26.667969 C 5.714844 27.304688 5.550781 27.859375 5.304688 27.859375 C 5.101562 27.859375 4.898438 27.304688 4.898438 26.667969 C 4.898438 26.03125 5.101562 25.472656 5.304688 25.472656 C 5.550781 25.472656 5.714844 26.03125 5.714844 26.667969 Z M 8.570312 26.585938 C 8.570312 26.824219 8.40625 27.222656 8.164062 27.460938 C 7.960938 27.703125 7.753906 27.542969 7.753906 27.144531 C 7.753906 26.667969 7.960938 26.269531 8.164062 26.269531 C 8.40625 26.269531 8.570312 26.429688 8.570312 26.585938 Z M 10.203125 26.585938 C 10.203125 26.824219 10.039062 27.222656 9.796875 27.460938 C 9.59375 27.703125 9.386719 27.542969 9.386719 27.144531 C 9.386719 26.667969 9.59375 26.269531 9.796875 26.269531 C 10.039062 26.269531 10.203125 26.429688 10.203125 26.585938 Z M 17.46875 26.746094 C 17.0625 27.460938 15.101562 27.703125 15.101562 26.984375 C 15.101562 26.585938 15.671875 26.269531 16.40625 26.269531 C 17.101562 26.269531 17.59375 26.507812 17.46875 26.746094 Z M 19.59375 27.066406 C 19.59375 27.460938 19.386719 27.859375 19.144531 27.859375 C 18.9375 27.859375 18.855469 27.460938 18.980469 27.066406 C 19.101562 26.585938 19.304688 26.269531 19.429688 26.269531 C 19.511719 26.269531 19.59375 26.585938 19.59375 27.066406 Z M 22.039062 26.90625 C 22.039062 27.304688 21.753906 27.621094 21.429688 27.621094 C 21.101562 27.621094 20.9375 27.304688 21.0625 26.90625 C 21.183594 26.585938 21.429688 26.269531 21.671875 26.269531 C 21.878906 26.269531 22.039062 26.585938 22.039062 26.90625 Z M 23.265625 27.066406 C 23.265625 27.460938 23.183594 27.859375 23.101562 27.859375 C 22.980469 27.859375 22.777344 27.460938 22.652344 27.066406 C 22.53125 26.585938 22.613281 26.269531 22.816406 26.269531 C 23.0625 26.269531 23.265625 26.585938 23.265625 27.066406 Z M 26.40625 28.339844 C 26.285156 28.578125 25.917969 28.65625 25.632812 28.417969 C 25.304688 28.179688 25.429688 27.941406 25.878906 27.941406 C 26.328125 27.859375 26.570312 28.097656 26.40625 28.339844 Z M 26.40625 28.339844 "/>
<path style=" stroke:none;fill-rule:nonzero;fill:rgb(0%,0%,0%);fill-opacity:1;" d="M 125.917969 15.125 C 125.796875 15.601562 125.960938 15.679688 126.285156 15.441406 C 127.019531 14.886719 127.144531 14.328125 126.570312 14.328125 C 126.328125 14.328125 126.039062 14.648438 125.917969 15.125 Z M 125.917969 15.125 "/>
<path style=" stroke:none;fill-rule:nonzero;fill:rgb(0%,0%,0%);fill-opacity:1;" d="M 0.121094 125.375 C 0.121094 127.125 0.203125 127.761719 0.285156 126.726562 C 0.367188 125.769531 0.367188 124.339844 0.285156 123.542969 C 0.164062 122.824219 0.0820312 123.621094 0.121094 125.375 Z M 0.121094 125.375 "/>
</g>
</svg>
