<?xml version="1.0" standalone="no"?>
<!DOCTYPE svg PUBLIC "-//W3C//DTD SVG 20010904//EN"
 "http://www.w3.org/TR/2001/REC-SVG-20010904/DTD/svg10.dtd">
<svg version="1.0" xmlns="http://www.w3.org/2000/svg"
 width="300.000000pt" height="168.000000pt" viewBox="0 0 300.000000 168.000000"
 preserveAspectRatio="xMidYMid meet">

<g transform="translate(0.000000,168.000000) scale(0.100000,-0.100000)"
fill="#000000" stroke="none">
<path d="M0 840 l0 -840 1500 0 1500 0 0 840 0 840 -1500 0 -1500 0 0 -840z
m1780 137 l0 -172 -62 -34 -62 -34 -63 33 -63 34 0 76 0 76 57 32 c42 25 63
31 85 27 l28 -7 0 91 0 91 40 -20 40 -20 0 -173z m-670 10 l55 -32 3 -93 c2
-55 -1 -92 -7 -92 -5 0 -26 9 -45 21 -33 19 -36 25 -36 68 0 55 -25 80 -60 59
-15 -10 -20 -24 -20 -59 0 -43 -3 -49 -36 -68 -19 -12 -40 -21 -45 -21 -6 0
-9 37 -7 92 l3 92 55 33 c30 18 62 33 70 33 9 0 40 -15 70 -33z m271 18 c17
-9 27 -21 23 -27 -4 -6 -3 -8 4 -4 15 9 62 -14 62 -31 0 -22 -31 -63 -47 -63
-13 0 -15 -10 -11 -50 5 -48 4 -51 -27 -70 -34 -21 -60 -19 -69 6 -3 9 -11 12
-17 9 -6 -4 -9 -1 -7 7 2 7 -6 33 -16 57 l-20 42 -17 -33 -18 -33 4 69 c3 42
9 73 17 78 111 67 99 63 139 43z m649 -18 c71 -43 75 -71 13 -105 l-43 -23 0
22 c0 12 -8 27 -17 34 -26 19 -63 -1 -63 -34 0 -21 11 -32 62 -60 l61 -34 -24
-18 c-43 -34 -63 -33 -126 3 l-58 34 0 74 0 74 55 32 c30 18 62 33 70 34 8 0
40 -15 70 -33z m-56 -93 c7 -17 0 -34 -14 -34 -11 0 -21 30 -14 41 8 14 21 11
28 -7z m-397 -183 l43 -26 -3 -69 -2 -70 -55 -33 c-56 -34 -90 -39 -98 -15 -3
11 0 11 14 2 16 -10 29 -6 76 21 l57 33 -1 63 -2 63 -56 34 -57 33 -57 -34
-56 -35 0 -64 c0 -59 2 -65 25 -76 14 -6 27 -9 29 -7 3 3 6 35 7 72 3 83 19
90 19 8 0 -92 -10 -104 -65 -79 -23 10 -25 16 -25 77 0 36 4 72 8 78 4 7 32
26 62 42 59 32 56 33 137 -18z m-21 -56 c18 -14 17 -15 -8 -4 -28 12 -58 7
-58 -10 0 -5 9 -13 21 -16 11 -4 18 -9 16 -12 -3 -3 -15 -2 -26 2 -20 6 -28
34 -14 48 11 12 49 7 69 -8z m13 -49 c9 -11 8 -18 -4 -30 -21 -20 -69 -21 -85
-1 -18 22 -5 31 15 11 19 -19 46 -21 63 -4 9 9 7 14 -6 24 -9 8 -12 14 -6 14
6 0 17 -6 23 -14z"/>
<path d="M1632 914 c-42 -29 -17 -82 33 -70 20 5 25 13 25 36 0 38 -28 55 -58
34z"/>
</g>
</svg>
