<?xml version="1.0" standalone="no"?>
<!DOCTYPE svg PUBLIC "-//W3C//DTD SVG 20010904//EN"
 "http://www.w3.org/TR/2001/REC-SVG-20010904/DTD/svg10.dtd">
<svg version="1.0" xmlns="http://www.w3.org/2000/svg"
 width="205.000000pt" height="245.000000pt" viewBox="0 0 205.000000 245.000000"
 preserveAspectRatio="xMidYMid meet">

<g transform="translate(0.000000,245.000000) scale(0.100000,-0.100000)"
fill="#000000" stroke="none">
<path d="M828 2325 c-96 -24 -181 -69 -244 -129 -32 -31 -64 -56 -72 -56 -23
0 -113 -50 -107 -60 3 -5 0 -7 -8 -4 -20 7 -92 -77 -125 -146 l-27 -55 -8
-660 c-10 -715 -6 -796 36 -888 32 -70 101 -145 164 -179 85 -46 133 -50 628
-46 l460 3 58 27 c123 58 208 174 228 311 10 70 10 705 0 1142 -6 285 -7 291
-32 345 -51 107 -160 196 -264 216 -20 3 -52 23 -77 47 -100 96 -256 147 -443
146 -60 0 -136 -7 -167 -14z m340 -71 c131 -30 246 -105 258 -169 3 -19 1 -50
-6 -69 l-12 -36 -394 0 -394 0 -11 28 c-19 49 -19 66 1 107 35 71 159 136 295
155 72 10 177 4 263 -16z m412 -204 c52 -27 106 -88 136 -154 25 -54 28 -73
31 -205 2 -80 0 -402 -4 -716 l-8 -570 -24 -50 c-34 -68 -80 -116 -144 -148
l-54 -28 -500 3 -500 3 -56 37 c-65 43 -101 88 -127 155 -16 44 -18 101 -21
748 -4 752 -5 733 47 816 13 20 20 40 16 45 -4 4 -2 4 4 1 6 -4 22 5 35 19 20
22 88 64 102 64 3 0 10 -21 16 -46 6 -25 22 -61 34 -79 l22 -35 427 0 427 0
18 28 c29 41 43 80 43 113 0 27 3 30 23 23 12 -3 38 -15 57 -24z"/>
</g>
</svg>
